PathFileType	4	(X/Y/Z)	D:\MotionData\NordSprintingStudy\Test 2\Edited\COP_Left_Board_FP2000002.trc
DataRate	CameraRate	NumFrames	NumMarkers	Units	OrigDataRate	OrigDataStartFrame	OrigNumFrames
200.00	200.00	     53	5	mm	200.00	3175	     12696
Frame#	Time	M1			M2			M3			M4			M5			
		X1	Y1	Z1	X2	Y2	Z2	X3	Y3	Z3	X4	Y4	Z4	X5	Y5	Z5	

3175	15.870	1050.84790	1927.40881	48.89098	1034.10547	2247.69067	57.48862	1233.71436	2258.57080	56.62757	1633.27551	2279.98999	56.83743	1650.15796	1959.23157	47.39404	
3176	15.875	1050.87866	1927.41541	48.84400	1034.00781	2247.67163	57.58752	1233.79028	2258.58301	56.57909	1633.21204	2279.97632	56.89828	1650.15967	1959.23547	47.39219	
3177	15.880	1050.88782	1927.42236	48.89019	1034.12598	2247.71875	57.45957	1233.75378	2258.57104	56.60346	1633.31543	2280.01196	56.83832	1650.18445	1959.22498	47.42894	
3178	15.885	1050.94690	1927.44556	48.80956	1034.08228	2247.68604	57.57872	1233.80176	2258.58838	56.58622	1633.23120	2279.97778	56.95745	1650.21472	1959.24280	47.37240	
3179	15.890	1050.97754	1927.41943	48.82158	1034.19727	2247.72876	57.45599	1233.92554	2258.59131	56.50816	1633.32568	2280.02222	56.85942	1650.27417	1959.24402	47.40312	
3180	15.895	1051.02820	1927.45422	48.74169	1034.20520	2247.70435	57.45388	1233.97229	2258.56567	56.49624	1633.34070	2279.99487	56.86393	1650.35779	1959.27844	47.28780	
3181	15.900	1051.04407	1927.41248	48.76817	1034.35010	2247.77222	57.30976	1234.05334	2258.64404	56.41176	1633.42896	2280.03271	56.76649	1650.37305	1959.26672	47.31858	
3182	15.905	1051.13892	1927.42017	48.67018	1034.41187	2247.77515	57.20583	1234.09595	2258.62451	56.36785	1633.53760	2280.04858	56.65524	1650.45593	1959.29919	47.21148	
3183	15.910	1051.18750	1927.42249	48.61848	1034.35706	2247.76685	57.29082	1234.15051	2258.61426	56.24334	1633.52966	2280.05078	56.66661	1650.47314	1959.28625	47.19606	
3184	15.915	1051.30750	1927.41760	48.54820	1034.56860	2247.77734	57.05449	1234.18677	2258.62476	56.26197	1633.60889	2280.05249	56.57604	1650.57678	1959.29919	47.10438	
3185	15.920	1051.28979	1927.42664	48.49166	1034.57227	2247.83057	57.06704	1234.32849	2258.59863	56.11851	1633.66528	2280.08887	56.54425	1650.61975	1959.32520	47.04366	
3186	15.925	1051.39014	1927.42480	48.43471	1034.62695	2247.81445	56.95985	1234.30933	2258.67041	56.13792	1633.68787	2280.09546	56.49482	1650.68396	1959.34619	46.99046	
3187	15.930	1051.31592	1927.43750	48.46441	1034.63672	2247.83081	56.97372	1234.32800	2258.62378	56.07446	1633.72217	2280.10864	56.44633	1650.66125	1959.34448	46.97566	
3188	15.935	1051.40088	1927.46863	48.38384	1034.89941	2247.87964	56.91637	1234.33435	2258.69360	56.06170	1633.76294	2280.13403	56.38234	1650.71838	1959.37134	46.94205	
3189	15.940	1051.30347	1927.46533	48.45264	1034.48499	2247.80493	56.87445	1234.32983	2258.65332	56.06075	1633.70850	2280.12451	56.44960	1650.63037	1959.38245	46.96872	
3190	15.945	1051.33179	1927.50317	48.39552	1034.52161	2247.82349	56.80925	1234.20947	2258.69385	56.15818	1633.72522	2280.14453	56.42123	1650.65601	1959.37598	46.95883	
3191	15.950	1051.22925	1927.51184	48.45266	1034.37427	2247.75269	56.92416	1234.28442	2258.68188	56.05668	1633.66724	2280.14648	56.50390	1650.57788	1959.36487	46.98433	
3192	15.955	1051.24280	1927.48083	48.45036	1034.37805	2247.77783	56.90921	1234.20630	2258.66431	56.13176	1633.70728	2280.10986	56.48558	1650.56348	1959.36853	46.99548	
3193	15.960	1051.25281	1927.47864	48.43370	1034.24841	2247.73779	57.03678	1234.19263	2258.67139	56.15417	1633.69836	2280.03149	56.62519	1650.56677	1959.35754	47.00061	
3194	15.965	1051.17688	1927.45935	48.53779	1034.26563	2247.73022	57.00985	1234.12000	2258.64087	56.22261	1633.91394	2279.91846	56.57029	1650.46582	1959.32275	47.09578	
3195	15.970	1051.16113	1927.45837	48.56654	1034.15308	2247.71094	57.15713	1234.06641	2258.61499	56.24471	1634.00903	2279.79370	56.74669	1650.45276	1959.29150	47.14668	
3196	15.975	1051.07996	1927.43909	48.65783	1034.15051	2247.72534	57.20238	1234.08752	2258.62036	56.31083	1634.21375	2279.72339	56.77340	1650.39209	1959.27600	47.20107	
3197	15.980	1051.03296	1927.40820	48.76711	1034.05151	2247.63794	57.30157	1233.97314	2258.61816	56.42730	1633.26892	2280.07251	56.64000	1650.31311	1959.24536	47.32485	
3198	15.985	1051.01807	1927.41699	48.79900	1034.09290	2247.66309	57.31659	1233.89624	2258.57080	56.56733	1633.33020	2280.06274	56.63081	1650.30225	1959.23926	47.35432	
3199	15.990	1050.96399	1927.37842	48.90128	1033.98267	2247.61743	57.43799	1233.92529	2258.60449	56.54420	1633.19202	2280.00513	56.74980	1650.24133	1959.21411	47.42730	
3200	15.995	1050.97644	1927.38928	48.87719	1034.07324	2247.69263	57.37915	1233.89832	2258.55835	56.60161	1633.22131	2280.05713	56.74413	1650.27197	1959.22937	47.42227	
3201	16.000	1050.98376	1927.39160	48.90219	1034.04688	2247.63721	57.37436	1233.91687	2258.57788	56.59595	1633.13647	2279.99927	56.82415	1650.29590	1959.23755	47.42656	
3202	16.005	1050.93213	1927.38403	48.89892	1033.97559	2247.65063	57.47247	1233.89954	2258.56958	56.56043	1633.13245	2280.03125	56.79546	1650.22083	1959.22913	47.45880	
3203	16.010	1050.97412	1927.38379	48.85632	1033.97876	2247.63770	57.43144	1233.85400	2258.57837	56.63046	1633.19360	2280.03613	56.72136	1650.24316	1959.21521	47.43909	
3204	16.015	1050.88953	1927.37622	48.92852	1034.05188	2247.66895	57.38696	1233.86243	2258.57495	56.57878	1633.15063	2280.03223	56.72937	1650.20251	1959.21277	47.45863	
3205	16.020	1050.97827	1927.39526	48.83965	1034.04932	2247.63525	57.31009	1233.81885	2258.59082	56.62672	1633.17969	2280.04565	56.71472	1650.25549	1959.23706	47.39378	
3206	16.025	1050.95007	1927.38928	48.82378	1034.00366	2247.67480	57.34114	1233.91345	2258.62109	56.52552	1633.13293	2280.02393	56.73908	1650.24060	1959.23901	47.39114	
3207	16.030	1051.01733	1927.43201	48.77488	1034.10083	2247.71802	57.28089	1234.00818	2258.60010	56.40939	1633.24390	2280.04321	56.62738	1650.30322	1959.27979	47.30059	
3208	16.035	1051.07788	1927.44067	48.69163	1034.23682	2247.71436	57.10052	1233.99915	2258.60986	56.37523	1634.21985	2279.70435	56.64494	1650.36133	1959.30322	47.25131	
3209	16.040	1051.08252	1927.43555	48.69460	1034.27673	2247.71191	57.08225	1234.09387	2258.63452	56.34324	1634.17358	2279.74341	56.64550	1650.35974	1959.33386	47.24792	
3210	16.045	1051.18311	1927.46399	48.57444	1034.29773	2247.75977	57.05703	1234.13416	2258.62354	56.31405	1634.11938	2279.81494	56.57770	1650.46057	1959.37305	47.15786	
3211	16.050	1051.17749	1927.46082	48.59400	1034.31006	2247.74390	57.14040	1234.22009	2258.65381	56.25935	1633.99683	2279.88574	56.59037	1650.48743	1959.43005	47.11180	
3212	16.055	1051.31604	1927.49243	48.51500	1034.49658	2247.81641	56.93909	1234.19055	2258.65259	56.26073	1633.98169	2279.93774	56.52493	1650.50452	1959.49048	47.03478	
3213	16.060	1051.30493	1927.49768	48.50790	1034.47363	2247.78101	57.01823	1234.34912	2258.66870	56.15603	1633.90564	2280.01904	56.53231	1650.48279	1959.54456	47.00882	
3214	16.065	1051.38916	1927.47766	48.46449	1034.58142	2247.78027	56.81695	1234.26575	2258.66333	56.18995	1633.89526	2280.09253	56.43354	1650.49060	1959.60974	46.94705	
3215	16.070	1051.32422	1927.45581	48.46687	1034.43091	2247.75977	56.97089	1234.33154	2258.67822	56.08382	1633.83069	2280.12866	56.45351	1650.43701	1959.64612	46.97522	
3216	16.075	1051.40833	1927.44189	48.42389	1034.59729	2247.78882	56.78348	1234.36047	2258.65796	56.06346	1633.79541	2280.11108	56.46746	1650.42786	1959.70117	46.88407	
3217	16.080	1051.39282	1927.44275	48.38700	1034.56897	2247.76953	56.75266	1234.36853	2258.67627	56.02975	1633.70776	2280.09888	56.48794	1650.41589	1959.76440	46.86335	
3218	16.085	1051.28308	1927.45300	48.47574	1034.59729	2247.78833	56.82940	1234.29797	2258.63135	56.09481	1633.72229	2280.10254	56.46940	1650.26404	1959.78760	46.94846	
3219	16.090	1051.27478	1927.44470	48.50277	1034.36792	2247.72485	56.97680	1234.17505	2258.64063	56.22224	1633.65833	2280.07959	56.51844	1650.21777	1959.82690	46.98002	
3220	16.095	1051.18042	1927.45361	48.56141	1034.21802	2247.73022	57.17443	1234.14807	2258.63843	56.27013	1633.54211	2280.07886	56.61684	1650.06213	1959.85083	47.07244	
3221	16.100	1051.18567	1927.41309	48.62460	1034.06250	2247.68262	57.30532	1234.08606	2258.63599	56.30884	1633.51489	2280.05469	56.63174	1649.99072	1959.88220	47.06144	
3222	16.105	1051.39331	1927.40381	48.60417	1034.12805	2247.67261	57.18333	1234.02417	2258.64526	56.39003	1633.37708	2280.01050	56.77330	1649.92334	1959.92322	47.09113	
3223	16.110	1051.57898	1927.39294	48.63941	1034.12817	2247.68335	57.20750	1233.98694	2258.62354	56.42599	1633.40662	2280.02881	56.73654	1649.76770	1959.96399	47.17136	
3224	16.115	1050.81409	1927.39502	48.75172	1034.07874	2247.65942	57.21265	1233.87109	2258.59448	56.50657	1633.35205	2280.00757	56.77732	1649.70789	1960.00122	47.19707	
3225	16.120	1050.71228	1927.41113	48.83501	1034.05542	2247.66724	57.28423	1233.89355	2258.58301	56.52282	1633.34644	2280.00464	56.80473	1649.53442	1959.99646	47.30385	
3226	16.125	1050.72119	1927.38367	48.86932	1034.00134	2247.67798	57.32332	1233.73254	2258.58521	56.65475	1633.32642	2280.01147	56.80042	1649.57227	1960.06702	47.23260	
3227	16.130	1050.69495	1927.38892	48.85269	1033.79126	2247.60913	57.48830	1233.78223	2258.58789	56.58076	1633.21167	2280.00562	56.97191	1649.51123	1960.09827	47.25042	
